<?xml version="1.0" encoding="UTF-8" standalone="no"?><svg xmlns="http://www.w3.org/2000/svg" xmlns:xlink="http://www.w3.org/1999/xlink" contentStyleType="text/css" height="637px" preserveAspectRatio="none" style="width:722px;height:637px;background:#FFFFFF;" version="1.1" viewBox="0 0 722 637" width="722px" zoomAndPan="magnify"><defs/><g><!--cluster Before--><g id="cluster_Before"><rect fill="none" height="115" rx="2.5" ry="2.5" style="stroke:#000000;stroke-width:1.5;" width="514" x="10.8076" y="7"/><text fill="#000000" font-family="sans-serif" font-size="14" font-weight="bold" lengthAdjust="spacing" textLength="53" x="241.3076" y="21.9951">Before</text></g><!--cluster New--><g id="cluster_New"><rect fill="none" height="99" rx="2.5" ry="2.5" style="stroke:#000000;stroke-width:1.5;" width="160" x="556.8076" y="15"/><text fill="#000000" font-family="sans-serif" font-size="14" font-weight="bold" lengthAdjust="spacing" textLength="35" x="619.3076" y="29.9951">New</text></g><!--cluster Transaction--><g id="cluster_Transaction"><rect fill="none" height="305" rx="2.5" ry="2.5" style="stroke:#000000;stroke-width:1.5;" width="367" x="13.8076" y="162"/><text fill="#000000" font-family="sans-serif" font-size="14" font-weight="bold" lengthAdjust="spacing" textLength="93" x="150.8076" y="176.9951">Transaction</text></g><!--cluster Inputs--><g id="cluster_Inputs"><rect fill="none" height="99" rx="2.5" ry="2.5" style="stroke:#000000;stroke-width:1.5;" width="146" x="53.8076" y="213"/><text fill="#000000" font-family="sans-serif" font-size="14" font-weight="bold" lengthAdjust="spacing" textLength="49" x="102.3076" y="227.9951">Inputs</text></g><!--cluster Outputs--><g id="cluster_Outputs"><rect fill="none" height="99" rx="2.5" ry="2.5" style="stroke:#000000;stroke-width:1.5;" width="295" x="53.8076" y="336"/><text fill="#000000" font-family="sans-serif" font-size="14" font-weight="bold" lengthAdjust="spacing" textLength="63" x="169.8076" y="350.9951">Outputs</text></g><!--cluster After--><g id="cluster_After"><rect fill="none" height="115" rx="2.5" ry="2.5" style="stroke:#000000;stroke-width:1.5;" width="663" x="26.8076" y="516"/><text fill="#000000" font-family="sans-serif" font-size="14" font-weight="bold" lengthAdjust="spacing" textLength="40" x="338.3076" y="530.9951">After</text></g><g id="elem_BeforeMain"><rect fill="#FFFF00" height="40.5938" style="stroke:#181818;stroke-width:0.5;" width="97" x="62.3076" y="54"/><text fill="#000000" font-family="sans-serif" font-size="14" lengthAdjust="spacing" textLength="32" x="94.8076" y="68.9951">Main</text><line style="stroke:#181818;stroke-width:1.0;" x1="62.3076" x2="159.3076" y1="74.2969" y2="74.2969"/><text fill="#000000" font-family="sans-serif" font-size="14" lengthAdjust="spacing" textLength="25" x="67.3076" y="89.292">first</text><text fill="#000000" font-family="sans-serif" font-size="14" lengthAdjust="spacing" textLength="52" x="102.3076" y="89.292">Banana</text><line style="stroke:#181818;stroke-width:1.0;" x1="97.3076" x2="97.3076" y1="74.2969" y2="94.5938"/></g><g id="elem_BeforeBanana"><rect fill="#F1F1F1" height="40.5938" style="stroke:#181818;stroke-width:0.5;" width="123" x="210.3076" y="54"/><text fill="#000000" font-family="sans-serif" font-size="14" lengthAdjust="spacing" textLength="28" x="257.8076" y="68.9951">Leaf</text><line style="stroke:#181818;stroke-width:1.0;" x1="210.3076" x2="333.3076" y1="74.2969" y2="74.2969"/><text fill="#000000" font-family="sans-serif" font-size="14" lengthAdjust="spacing" textLength="52" x="215.3076" y="89.292">Banana</text><text fill="#000000" font-family="sans-serif" font-size="14" lengthAdjust="spacing" textLength="51" x="277.3076" y="89.292">Orange</text><line style="stroke:#181818;stroke-width:1.0;" x1="272.3076" x2="272.3076" y1="74.2969" y2="94.5938"/></g><g id="elem_BeforeOrange"><rect fill="#F1F1F1" height="40.5938" style="stroke:#181818;stroke-width:0.5;" width="108" x="384.8076" y="54"/><text fill="#000000" font-family="sans-serif" font-size="14" lengthAdjust="spacing" textLength="28" x="424.8076" y="68.9951">Leaf</text><line style="stroke:#181818;stroke-width:1.0;" x1="384.8076" x2="492.8076" y1="74.2969" y2="74.2969"/><text fill="#000000" font-family="sans-serif" font-size="14" lengthAdjust="spacing" textLength="51" x="389.8076" y="89.292">Orange</text><text fill="#000000" font-family="sans-serif" font-size="14" lengthAdjust="spacing" textLength="37" x="450.8076" y="89.292">None</text><line style="stroke:#181818;stroke-width:1.0;" x1="445.8076" x2="445.8076" y1="74.2969" y2="94.5938"/></g><g id="elem_NewApple"><rect fill="#00FF00" height="40.5938" style="stroke:#181818;stroke-width:0.5;" width="111" x="581.3076" y="54"/><text fill="#000000" font-family="sans-serif" font-size="14" lengthAdjust="spacing" textLength="62" x="605.8076" y="68.9951">New Leaf</text><line style="stroke:#181818;stroke-width:1.0;" x1="581.3076" x2="692.3076" y1="74.2969" y2="74.2969"/><text fill="#000000" font-family="sans-serif" font-size="14" lengthAdjust="spacing" textLength="39" x="586.3076" y="89.292">Apple</text><text fill="#000000" font-family="sans-serif" font-size="14" lengthAdjust="spacing" textLength="52" x="635.3076" y="89.292">Banana</text><line style="stroke:#181818;stroke-width:1.0;" x1="630.3076" x2="630.3076" y1="74.2969" y2="94.5938"/></g><g id="elem_InputMain"><rect fill="#FFFF00" height="40.5938" style="stroke:#181818;stroke-width:0.5;" width="97" x="78.3076" y="252"/><text fill="#000000" font-family="sans-serif" font-size="14" lengthAdjust="spacing" textLength="32" x="110.8076" y="266.9951">Main</text><line style="stroke:#181818;stroke-width:1.0;" x1="78.3076" x2="175.3076" y1="272.2969" y2="272.2969"/><text fill="#000000" font-family="sans-serif" font-size="14" lengthAdjust="spacing" textLength="25" x="83.3076" y="287.292">first</text><text fill="#000000" font-family="sans-serif" font-size="14" lengthAdjust="spacing" textLength="52" x="118.3076" y="287.292">Banana</text><line style="stroke:#181818;stroke-width:1.0;" x1="113.3076" x2="113.3076" y1="272.2969" y2="292.5938"/></g><g id="elem_OutputMain"><rect fill="#FFFF00" height="40.5938" style="stroke:#181818;stroke-width:0.5;" width="84" x="77.8076" y="375"/><text fill="#000000" font-family="sans-serif" font-size="14" lengthAdjust="spacing" textLength="32" x="103.8076" y="389.9951">Main</text><line style="stroke:#181818;stroke-width:1.0;" x1="77.8076" x2="161.8076" y1="395.2969" y2="395.2969"/><text fill="#000000" font-family="sans-serif" font-size="14" lengthAdjust="spacing" textLength="25" x="82.8076" y="410.292">first</text><text fill="#000000" font-family="sans-serif" font-size="14" lengthAdjust="spacing" textLength="39" x="117.8076" y="410.292">Apple</text><line style="stroke:#181818;stroke-width:1.0;" x1="112.8076" x2="112.8076" y1="395.2969" y2="415.5938"/></g><g id="elem_OutputApple"><rect fill="#00FF00" height="40.5938" style="stroke:#181818;stroke-width:0.5;" width="111" x="213.3076" y="375"/><text fill="#000000" font-family="sans-serif" font-size="14" lengthAdjust="spacing" textLength="28" x="254.8076" y="389.9951">Leaf</text><line style="stroke:#181818;stroke-width:1.0;" x1="213.3076" x2="324.3076" y1="395.2969" y2="395.2969"/><text fill="#000000" font-family="sans-serif" font-size="14" lengthAdjust="spacing" textLength="39" x="218.3076" y="410.292">Apple</text><text fill="#000000" font-family="sans-serif" font-size="14" lengthAdjust="spacing" textLength="52" x="267.3076" y="410.292">Banana</text><line style="stroke:#181818;stroke-width:1.0;" x1="262.3076" x2="262.3076" y1="395.2969" y2="415.5938"/></g><g id="elem_AfterMain"><rect fill="#FFFF00" height="40.5938" style="stroke:#181818;stroke-width:0.5;" width="84" x="77.8076" y="563"/><text fill="#000000" font-family="sans-serif" font-size="14" lengthAdjust="spacing" textLength="32" x="103.8076" y="577.9951">Main</text><line style="stroke:#181818;stroke-width:1.0;" x1="77.8076" x2="161.8076" y1="583.2969" y2="583.2969"/><text fill="#000000" font-family="sans-serif" font-size="14" lengthAdjust="spacing" textLength="25" x="82.8076" y="598.292">first</text><text fill="#000000" font-family="sans-serif" font-size="14" lengthAdjust="spacing" textLength="39" x="117.8076" y="598.292">Apple</text><line style="stroke:#181818;stroke-width:1.0;" x1="112.8076" x2="112.8076" y1="583.2969" y2="603.5938"/></g><g id="elem_AfterApple"><rect fill="#00FF00" height="40.5938" style="stroke:#181818;stroke-width:0.5;" width="111" x="213.3076" y="563"/><text fill="#000000" font-family="sans-serif" font-size="14" lengthAdjust="spacing" textLength="28" x="254.8076" y="577.9951">Leaf</text><line style="stroke:#181818;stroke-width:1.0;" x1="213.3076" x2="324.3076" y1="583.2969" y2="583.2969"/><text fill="#000000" font-family="sans-serif" font-size="14" lengthAdjust="spacing" textLength="39" x="218.3076" y="598.292">Apple</text><text fill="#000000" font-family="sans-serif" font-size="14" lengthAdjust="spacing" textLength="52" x="267.3076" y="598.292">Banana</text><line style="stroke:#181818;stroke-width:1.0;" x1="262.3076" x2="262.3076" y1="583.2969" y2="603.5938"/></g><g id="elem_AfterBanana"><rect fill="#F1F1F1" height="40.5938" style="stroke:#181818;stroke-width:0.5;" width="123" x="375.3076" y="563"/><text fill="#000000" font-family="sans-serif" font-size="14" lengthAdjust="spacing" textLength="28" x="422.8076" y="577.9951">Leaf</text><line style="stroke:#181818;stroke-width:1.0;" x1="375.3076" x2="498.3076" y1="583.2969" y2="583.2969"/><text fill="#000000" font-family="sans-serif" font-size="14" lengthAdjust="spacing" textLength="52" x="380.3076" y="598.292">Banana</text><text fill="#000000" font-family="sans-serif" font-size="14" lengthAdjust="spacing" textLength="51" x="442.3076" y="598.292">Orange</text><line style="stroke:#181818;stroke-width:1.0;" x1="437.3076" x2="437.3076" y1="583.2969" y2="603.5938"/></g><g id="elem_AfterOrange"><rect fill="#F1F1F1" height="40.5938" style="stroke:#181818;stroke-width:0.5;" width="108" x="549.8076" y="563"/><text fill="#000000" font-family="sans-serif" font-size="14" lengthAdjust="spacing" textLength="28" x="589.8076" y="577.9951">Leaf</text><line style="stroke:#181818;stroke-width:1.0;" x1="549.8076" x2="657.8076" y1="583.2969" y2="583.2969"/><text fill="#000000" font-family="sans-serif" font-size="14" lengthAdjust="spacing" textLength="51" x="554.8076" y="598.292">Orange</text><text fill="#000000" font-family="sans-serif" font-size="14" lengthAdjust="spacing" textLength="37" x="615.8076" y="598.292">None</text><line style="stroke:#181818;stroke-width:1.0;" x1="610.8076" x2="610.8076" y1="583.2969" y2="603.5938"/></g><!--link Before to Transaction--><g id="link_Before_Transaction"><path d="M19.54,122.9328 C19.545,123.2569 19.5499,123.5819 19.5549,123.908 C19.5649,124.56 19.575,125.216 19.5851,125.8757 C19.6053,127.1951 19.6257,128.5294 19.6464,129.8774 C19.6877,132.5733 19.7298,135.3235 19.7726,138.1173 C19.8582,143.7049 19.9465,149.4664 20.0361,155.3148 C20.0585,156.7769 20.081,158.2445 20.1035,159.7161 C20.1148,160.4519 20.1261,161.1887 20.1374,161.9264 " fill="none" id="Before-to-Transaction" style="stroke:#181818;stroke-width:2.0;"/><polygon fill="#181818" points="20.1374,161.9264,23.9991,152.8662,20.0608,156.927,16,152.9887,20.1374,161.9264" style="stroke:#181818;stroke-width:2.0;"/></g><!--link Transaction to After--><g id="link_Transaction_After"><path d="M30.0146,468.0813 C30.0388,468.6568 30.063,469.2315 30.0872,469.8054 C30.2803,474.3963 30.4713,478.9332 30.6592,483.3981 C31.0349,492.3279 31.3986,500.9698 31.7441,509.1797 C31.8305,511.2322 31.9157,513.2576 31.9997,515.2539 C32.005,515.3786 32.0102,515.5033 32.0155,515.6278 C32.0181,515.6901 32.0207,515.7523 32.0233,515.8145 " fill="none" id="Transaction-to-After" style="stroke:#181818;stroke-width:2.0;"/><polygon fill="#181818" points="32.0233,515.8145,35.6414,506.6543,31.8131,510.819,27.6484,506.9907,32.0233,515.8145" style="stroke:#181818;stroke-width:2.0;"/></g><!--link BeforeMain to BeforeBanana--><g id="link_BeforeMain_BeforeBanana"><path codeLine="74" d="M174.4476,82.3 C186.1776,83.32 198.3476,84 209.8076,84 " fill="none" id="BeforeMain-to-BeforeBanana" style="stroke:#181818;stroke-width:1.0;"/><polygon fill="#181818" points="209.8076,84,200.8076,80,204.8076,84,200.8076,88,209.8076,84" style="stroke:#181818;stroke-width:1.0;"/></g><!--link BeforeBanana to BeforeOrange--><g id="link_BeforeBanana_BeforeOrange"><path codeLine="75" d="M341.4076,82.12 C355.4176,83.23 370.0676,84 383.8076,84 " fill="none" id="BeforeBanana-to-BeforeOrange" style="stroke:#181818;stroke-width:1.0;"/><polygon fill="#181818" points="383.8076,84,374.8076,80,378.8076,84,374.8076,88,383.8076,84" style="stroke:#181818;stroke-width:1.0;"/></g><!--link BeforeMain to InputMain--><g id="link_BeforeMain_InputMain"><path codeLine="77" d="M112.7076,98.25 C115.6576,134.35 121.3176,203.77 124.4976,242.72 " fill="none" id="BeforeMain-to-InputMain" style="stroke:#181818;stroke-width:1.0;"/><polygon fill="#181818" points="124.9076,247.78,128.1486,238.4797,124.4935,242.7972,120.176,239.1421,124.9076,247.78" style="stroke:#181818;stroke-width:1.0;"/></g><!--link InputMain to OutputMain--><g id="link_InputMain_OutputMain"><path codeLine="78" d="M125.4776,296.04 C124.3376,315.77 122.6876,344.24 121.4576,365.41 " fill="none" id="InputMain-to-OutputMain" style="stroke:#181818;stroke-width:1.0;"/><polygon fill="#181818" points="121.1576,370.63,125.6645,361.8729,121.4428,365.6381,117.6776,361.4165,121.1576,370.63" style="stroke:#181818;stroke-width:1.0;"/></g><!--link OutputMain to AfterMain--><g id="link_OutputMain_AfterMain"><path codeLine="79" d="M119.8076,419.18 C119.8076,453.25 119.8076,516.76 119.8076,553.59 " fill="none" id="OutputMain-to-AfterMain" style="stroke:#181818;stroke-width:1.0;"/><polygon fill="#181818" points="119.8076,558.82,123.8076,549.82,119.8076,553.82,115.8076,549.82,119.8076,558.82" style="stroke:#181818;stroke-width:1.0;"/></g><!--link NewApple to OutputApple--><g id="link_NewApple_OutputApple"><path codeLine="82" d="M610.0476,98.2 C543.3976,155.97 370.2776,306.04 299.5676,367.33 " fill="none" id="NewApple-to-OutputApple" style="stroke:#181818;stroke-width:1.0;"/><polygon fill="#181818" points="295.4676,370.89,304.8864,368.0116,299.2437,367.6126,299.6427,361.9699,295.4676,370.89" style="stroke:#181818;stroke-width:1.0;"/></g><!--link OutputMain to OutputApple--><g id="link_OutputMain_OutputApple"><path codeLine="83" d="M162.8076,405 C185.0276,405 190.5876,405 212.8076,405 " fill="none" id="OutputMain-to-OutputApple" style="stroke:#181818;stroke-width:1.0;"/><polygon fill="#181818" points="212.8076,405,203.8076,401,207.8076,405,203.8076,409,212.8076,405" style="stroke:#181818;stroke-width:1.0;"/></g><!--link OutputApple to BeforeBanana--><g id="link_OutputApple_BeforeBanana"><path codeLine="84" d="M269.3276,370.74 C270.3976,321.28 272.7276,201.84 272.8076,100.14 " fill="none" id="OutputApple-to-BeforeBanana" style="stroke:#181818;stroke-width:1.0;"/><polygon fill="#181818" points="272.8076,95,268.8076,104,272.8076,100,276.8076,104,272.8076,95" style="stroke:#181818;stroke-width:1.0;"/></g><!--link OutputApple to AfterApple--><g id="link_OutputApple_AfterApple"><path codeLine="85" d="M268.8076,419.18 C268.8076,453.25 268.8076,516.76 268.8076,553.59 " fill="none" id="OutputApple-to-AfterApple" style="stroke:#181818;stroke-width:1.0;"/><polygon fill="#181818" points="268.8076,558.82,272.8076,549.82,268.8076,553.82,264.8076,549.82,268.8076,558.82" style="stroke:#181818;stroke-width:1.0;"/></g><!--link AfterMain to AfterApple--><g id="link_AfterMain_AfterApple"><path codeLine="87" d="M169.8776,590.32 C183.7276,591.85 198.8276,593 212.8076,593 " fill="none" id="AfterMain-to-AfterApple" style="stroke:#181818;stroke-width:1.0;"/><polygon fill="#181818" points="212.8076,593,203.8076,589,207.8076,593,203.8076,597,212.8076,593" style="stroke:#181818;stroke-width:1.0;"/></g><!--link AfterApple to AfterBanana--><g id="link_AfterApple_AfterBanana"><path codeLine="88" d="M331.0676,590.81 C345.3976,592.08 360.6176,593 374.8076,593 " fill="none" id="AfterApple-to-AfterBanana" style="stroke:#181818;stroke-width:1.0;"/><polygon fill="#181818" points="374.8076,593,365.8076,589,369.8076,593,365.8076,597,374.8076,593" style="stroke:#181818;stroke-width:1.0;"/></g><!--link AfterBanana to AfterOrange--><g id="link_AfterBanana_AfterOrange"><path codeLine="89" d="M499.0776,590.5 C515.2276,591.94 532.6476,593 548.8076,593 " fill="none" id="AfterBanana-to-AfterOrange" style="stroke:#181818;stroke-width:1.0;"/><polygon fill="#181818" points="548.8076,593,539.8076,589,543.8076,593,539.8076,597,548.8076,593" style="stroke:#181818;stroke-width:1.0;"/></g><!--SRC=[fLCzJyCm4DtlLnnqw1Gf2moHG08c96W7a1WGWw6Nr6fYHx6hKg7-TnpRSQw8gbGuaz-xU_UHPr7NUjF8JwagC2kfMj691erewAuMnhp8XLsYxTR4s5Pyh4H5JtPR4tRqOOMgQWAhMxGQtxMrki65x1cf5KpFx98QSjmMfgDA9zJAK8iN75HwGJrucSEqfjBsWfsibfRfGQoFjrJgZl0B0DrfH8ldZqAgSnGcSlqL9wKxUUxYC9vITiRYrJNU2kK-Z- -OoWE9agc4A9OV0ISmTrDKT4mWH36123Y1cLO4CNytZZQZJGptUlqrQRhBJTkwrK_o_CTW0Vyv6DDzTeMDy7jqQGDwhzgrDRnWsgEdJbeZgpPVsuF2WJkcx0SwlDuWSkesM8StfQNkTmTvwf_zUOtJsZkayWyJ-lo_Up0-gonxVTVruYtBhhbjW5k8n_WgCAJtYokAsADZ-KiQSDW7OqCfEDm7d0jZNoyv4qQFzlXeB60UInrw0Y0zecpC2JzpJ2gAy9_t0ug2nqNeoA3SfqCZGGLIKr5tdn-ASMIinOoHIkrXuqgP1z96lm40]--></g></svg>